<?xml version="1.0" encoding="UTF-8" standalone="no"?>
<!DOCTYPE svg PUBLIC "-//W3C//DTD SVG 1.0//EN" "http://www.w3.org/TR/2001/PR-SVG-20010719/DTD/svg10.dtd">
<svg width="54cm" height="40cm" viewBox="36 42 1066 790" xmlns="http://www.w3.org/2000/svg" xmlns:xlink="http://www.w3.org/1999/xlink">
  <g>
    <rect style="fill: #00ff00" x="164" y="190" width="187.7" height="18"/>
    <rect style="fill: none; fill-opacity:0; stroke-width: 2; stroke: #000000" x="164" y="190" width="187.7" height="18"/>
    <text font-size="11.2" style="fill: #000000;text-anchor:middle;font-family:sans-serif;font-style:normal;font-weight:700" x="257.85" y="204">raumenys</text>
    <rect style="fill: #00ff00" x="164" y="208" width="187.7" height="52"/>
    <rect style="fill: none; fill-opacity:0; stroke-width: 2; stroke: #000000" x="164" y="208" width="187.7" height="52"/>
    <polygon style="fill: #000000" points="167,218 169,221 171,218 169,215 "/>
    <text font-size="12.8" style="fill: #000000;text-anchor:start;font-family:monospace;font-style:normal;font-weight:normal" x="173" y="224">id</text>
    <text font-size="12.8" style="fill: #000000;text-anchor:start;font-family:monospace;font-style:normal;font-weight:normal" x="252.3" y="224">int</text>
    <line style="fill: none; fill-opacity:0; stroke-width: 1; stroke: #000000" x1="173" y1="225.6" x2="275.4" y2="225.6"/>
    <ellipse style="fill: #000000" cx="169" cy="234" rx="2" ry="2"/>
    <text font-size="12.8" style="fill: #000000;text-anchor:start;font-family:monospace;font-style:normal;font-weight:normal" x="173" y="240">pav</text>
    <text font-size="12.8" style="fill: #000000;text-anchor:start;font-family:monospace;font-style:normal;font-weight:normal" x="252.3" y="240">varchar(255)</text>
    <ellipse style="fill: none; fill-opacity:0; stroke-width: 0.2; stroke: #000000" cx="169" cy="250" rx="2" ry="2"/>
    <text font-size="12.8" style="fill: #000000;text-anchor:start;font-family:monospace;font-style:normal;font-weight:normal" x="173" y="256">id_grupes</text>
    <text font-size="12.8" style="fill: #000000;text-anchor:start;font-family:monospace;font-style:normal;font-weight:normal" x="252.3" y="256">int</text>
  </g>
  <g>
    <rect style="fill: #00ff00" x="160" y="285" width="141.5" height="18"/>
    <rect style="fill: none; fill-opacity:0; stroke-width: 2; stroke: #000000" x="160" y="285" width="141.5" height="18"/>
    <text font-size="11.2" style="fill: #000000;text-anchor:middle;font-family:sans-serif;font-style:normal;font-weight:700" x="230.75" y="299">raumenu_grupes</text>
    <rect style="fill: #00ff00" x="160" y="303" width="141.5" height="36"/>
    <rect style="fill: none; fill-opacity:0; stroke-width: 2; stroke: #000000" x="160" y="303" width="141.5" height="36"/>
    <polygon style="fill: #000000" points="163,313 165,316 167,313 165,310 "/>
    <text font-size="12.8" style="fill: #000000;text-anchor:start;font-family:monospace;font-style:normal;font-weight:normal" x="169" y="319">id</text>
    <text font-size="12.8" style="fill: #000000;text-anchor:start;font-family:monospace;font-style:normal;font-weight:normal" x="202.1" y="319">int</text>
    <line style="fill: none; fill-opacity:0; stroke-width: 1; stroke: #000000" x1="169" y1="320.6" x2="225.2" y2="320.6"/>
    <ellipse style="fill: #000000" cx="165" cy="329" rx="2" ry="2"/>
    <text font-size="12.8" style="fill: #000000;text-anchor:start;font-family:monospace;font-style:normal;font-weight:normal" x="169" y="335">pav</text>
    <text font-size="12.8" style="fill: #000000;text-anchor:start;font-family:monospace;font-style:normal;font-weight:normal" x="202.1" y="335">varchar(255)</text>
  </g>
  <g>
    <polyline style="fill: none; fill-opacity:0; stroke-width: 2; stroke: #000000" points="160,313 68,313 68,250 154.264,250 "/>
    <polygon style="fill: #000000" points="161.764,250 151.764,255 154.264,250 151.764,245 "/>
    <polygon style="fill: none; fill-opacity:0; stroke-width: 2; stroke: #000000" points="161.764,250 151.764,255 154.264,250 151.764,245 "/>
  </g>
  <g>
    <rect style="fill: #00ff00" x="437" y="155" width="218.5" height="18"/>
    <rect style="fill: none; fill-opacity:0; stroke-width: 2; stroke: #000000" x="437" y="155" width="218.5" height="18"/>
    <text font-size="11.2" style="fill: #000000;text-anchor:middle;font-family:sans-serif;font-style:normal;font-weight:700" x="546.25" y="169">pratimai</text>
    <rect style="fill: #00ff00" x="437" y="173" width="218.5" height="84"/>
    <rect style="fill: none; fill-opacity:0; stroke-width: 2; stroke: #000000" x="437" y="173" width="218.5" height="84"/>
    <polygon style="fill: #000000" points="440,183 442,186 444,183 442,180 "/>
    <text font-size="12.8" style="fill: #000000;text-anchor:start;font-family:monospace;font-style:normal;font-weight:normal" x="446" y="189">id</text>
    <text font-size="12.8" style="fill: #000000;text-anchor:start;font-family:monospace;font-style:normal;font-weight:normal" x="556.1" y="189">int</text>
    <line style="fill: none; fill-opacity:0; stroke-width: 1; stroke: #000000" x1="446" y1="190.6" x2="579.2" y2="190.6"/>
    <ellipse style="fill: none; fill-opacity:0; stroke-width: 0.2; stroke: #000000" cx="442" cy="199" rx="2" ry="2"/>
    <text font-size="12.8" style="fill: #000000;text-anchor:start;font-family:monospace;font-style:normal;font-weight:normal" x="446" y="205">pav</text>
    <text font-size="12.8" style="fill: #000000;text-anchor:start;font-family:monospace;font-style:normal;font-weight:normal" x="556.1" y="205">varchar(255)</text>
    <ellipse style="fill: none; fill-opacity:0; stroke-width: 0.2; stroke: #000000" cx="442" cy="215" rx="2" ry="2"/>
    <text font-size="12.8" style="fill: #000000;text-anchor:start;font-family:monospace;font-style:normal;font-weight:normal" x="446" y="221">pastabos</text>
    <text font-size="12.8" style="fill: #000000;text-anchor:start;font-family:monospace;font-style:normal;font-weight:normal" x="556.1" y="221">text</text>
    <ellipse style="fill: none; fill-opacity:0; stroke-width: 0.2; stroke: #000000" cx="442" cy="231" rx="2" ry="2"/>
    <text font-size="12.8" style="fill: #000000;text-anchor:start;font-family:monospace;font-style:normal;font-weight:normal" x="446" y="237">lygis_sunkumo</text>
    <text font-size="12.8" style="fill: #000000;text-anchor:start;font-family:monospace;font-style:normal;font-weight:normal" x="556.1" y="237">int</text>
    <ellipse style="fill: none; fill-opacity:0; stroke-width: 0.2; stroke: #000000" cx="442" cy="247" rx="2" ry="2"/>
    <text font-size="12.8" style="fill: #000000;text-anchor:start;font-family:monospace;font-style:normal;font-weight:normal" x="446" y="253">id_kito_lygio</text>
    <text font-size="12.8" style="fill: #000000;text-anchor:start;font-family:monospace;font-style:normal;font-weight:normal" x="556.1" y="253">int</text>
  </g>
  <g>
    <rect style="fill: #00ff00" x="424" y="42" width="133.8" height="18"/>
    <rect style="fill: none; fill-opacity:0; stroke-width: 2; stroke: #000000" x="424" y="42" width="133.8" height="18"/>
    <text font-size="11.2" style="fill: #000000;text-anchor:middle;font-family:sans-serif;font-style:normal;font-weight:700" x="490.9" y="56">pratimai_raumenys</text>
    <rect style="fill: #00ff00" x="424" y="60" width="133.8" height="52"/>
    <rect style="fill: none; fill-opacity:0; stroke-width: 2; stroke: #000000" x="424" y="60" width="133.8" height="52"/>
    <polygon style="fill: #000000" points="427,70 429,73 431,70 429,67 "/>
    <text font-size="12.8" style="fill: #000000;text-anchor:start;font-family:monospace;font-style:normal;font-weight:normal" x="433" y="76">id</text>
    <text font-size="12.8" style="fill: #000000;text-anchor:start;font-family:monospace;font-style:normal;font-weight:normal" x="527.7" y="76">int</text>
    <line style="fill: none; fill-opacity:0; stroke-width: 1; stroke: #000000" x1="433" y1="77.6" x2="550.8" y2="77.6"/>
    <ellipse style="fill: #000000" cx="429" cy="86" rx="2" ry="2"/>
    <text font-size="12.8" style="fill: #000000;text-anchor:start;font-family:monospace;font-style:normal;font-weight:normal" x="433" y="92">id_raumenys</text>
    <text font-size="12.8" style="fill: #000000;text-anchor:start;font-family:monospace;font-style:normal;font-weight:normal" x="527.7" y="92">inr</text>
    <ellipse style="fill: none; fill-opacity:0; stroke-width: 0.2; stroke: #000000" cx="429" cy="102" rx="2" ry="2"/>
    <text font-size="12.8" style="fill: #000000;text-anchor:start;font-family:monospace;font-style:normal;font-weight:normal" x="433" y="108">id_pratimai</text>
    <text font-size="12.8" style="fill: #000000;text-anchor:start;font-family:monospace;font-style:normal;font-weight:normal" x="527.7" y="108">int</text>
  </g>
  <g>
    <polyline style="fill: none; fill-opacity:0; stroke-width: 2; stroke: #000000" points="424,102 403,102 403,183 427.264,183 "/>
    <polygon style="fill: #000000" points="434.764,183 424.764,188 427.264,183 424.764,178 "/>
    <polygon style="fill: none; fill-opacity:0; stroke-width: 2; stroke: #000000" points="434.764,183 424.764,188 427.264,183 424.764,178 "/>
  </g>
  <g>
    <polyline style="fill: none; fill-opacity:0; stroke-width: 2; stroke: #000000" points="424,86 143,86 143,218 154.264,218 "/>
    <polygon style="fill: #000000" points="161.764,218 151.764,223 154.264,218 151.764,213 "/>
    <polygon style="fill: none; fill-opacity:0; stroke-width: 2; stroke: #000000" points="161.764,218 151.764,223 154.264,218 151.764,213 "/>
  </g>
  <g>
    <rect style="fill: #ffffff" x="706" y="201" width="141.5" height="18"/>
    <rect style="fill: none; fill-opacity:0; stroke-width: 2; stroke: #000000" x="706" y="201" width="141.5" height="18"/>
    <text font-size="11.2" style="fill: #000000;text-anchor:middle;font-family:sans-serif;font-style:normal;font-weight:700" x="776.75" y="215">pratimu_grupes</text>
    <rect style="fill: #ffffff" x="706" y="219" width="141.5" height="36"/>
    <rect style="fill: none; fill-opacity:0; stroke-width: 2; stroke: #000000" x="706" y="219" width="141.5" height="36"/>
    <polygon style="fill: #000000" points="709,229 711,232 713,229 711,226 "/>
    <text font-size="12.8" style="fill: #000000;text-anchor:start;font-family:monospace;font-style:normal;font-weight:normal" x="715" y="235">id</text>
    <text font-size="12.8" style="fill: #000000;text-anchor:start;font-family:monospace;font-style:normal;font-weight:normal" x="748.1" y="235">int</text>
    <line style="fill: none; fill-opacity:0; stroke-width: 1; stroke: #000000" x1="715" y1="236.6" x2="771.2" y2="236.6"/>
    <ellipse style="fill: #000000" cx="711" cy="245" rx="2" ry="2"/>
    <text font-size="12.8" style="fill: #000000;text-anchor:start;font-family:monospace;font-style:normal;font-weight:normal" x="715" y="251">pav</text>
    <text font-size="12.8" style="fill: #000000;text-anchor:start;font-family:monospace;font-style:normal;font-weight:normal" x="748.1" y="251">varchar(255)</text>
  </g>
  <g>
    <rect style="fill: #ffffff" x="816" y="78" width="249.3" height="18"/>
    <rect style="fill: none; fill-opacity:0; stroke-width: 2; stroke: #000000" x="816" y="78" width="249.3" height="18"/>
    <text font-size="11.2" style="fill: #000000;text-anchor:middle;font-family:sans-serif;font-style:normal;font-weight:700" x="940.65" y="92">pratimai_pratimu_grupes</text>
    <rect style="fill: #ffffff" x="816" y="96" width="249.3" height="84"/>
    <rect style="fill: none; fill-opacity:0; stroke-width: 2; stroke: #000000" x="816" y="96" width="249.3" height="84"/>
    <polygon style="fill: #000000" points="819,106 821,109 823,106 821,103 "/>
    <text font-size="12.8" style="fill: #000000;text-anchor:start;font-family:monospace;font-style:normal;font-weight:normal" x="825" y="112">id</text>
    <text font-size="12.8" style="fill: #000000;text-anchor:start;font-family:monospace;font-style:normal;font-weight:normal" x="965.9" y="112">int</text>
    <line style="fill: none; fill-opacity:0; stroke-width: 1; stroke: #000000" x1="825" y1="113.6" x2="989" y2="113.6"/>
    <ellipse style="fill: #000000" cx="821" cy="122" rx="2" ry="2"/>
    <text font-size="12.8" style="fill: #000000;text-anchor:start;font-family:monospace;font-style:normal;font-weight:normal" x="825" y="128">id_pratimo</text>
    <text font-size="12.8" style="fill: #000000;text-anchor:start;font-family:monospace;font-style:normal;font-weight:normal" x="965.9" y="128">int</text>
    <ellipse style="fill: #000000" cx="821" cy="138" rx="2" ry="2"/>
    <text font-size="12.8" style="fill: #000000;text-anchor:start;font-family:monospace;font-style:normal;font-weight:normal" x="825" y="144">id_pratimu_grupes</text>
    <text font-size="12.8" style="fill: #000000;text-anchor:start;font-family:monospace;font-style:normal;font-weight:normal" x="965.9" y="144">int</text>
    <ellipse style="fill: none; fill-opacity:0; stroke-width: 0.2; stroke: #000000" cx="821" cy="154" rx="2" ry="2"/>
    <text font-size="12.8" style="fill: #000000;text-anchor:start;font-family:monospace;font-style:normal;font-weight:normal" x="825" y="160">pulso_zona</text>
    <text font-size="12.8" style="fill: #000000;text-anchor:start;font-family:monospace;font-style:normal;font-weight:normal" x="965.9" y="160">int</text>
    <ellipse style="fill: none; fill-opacity:0; stroke-width: 0.2; stroke: #000000" cx="821" cy="170" rx="2" ry="2"/>
    <text font-size="12.8" style="fill: #000000;text-anchor:start;font-family:monospace;font-style:normal;font-weight:normal" x="825" y="176">tipas_treniruotes</text>
    <text font-size="12.8" style="fill: #000000;text-anchor:start;font-family:monospace;font-style:normal;font-weight:normal" x="965.9" y="176">varchar(255)</text>
  </g>
  <g>
    <rect style="fill: #00ff00" x="717" y="486" width="141.5" height="18"/>
    <rect style="fill: none; fill-opacity:0; stroke-width: 2; stroke: #000000" x="717" y="486" width="141.5" height="18"/>
    <text font-size="11.2" style="fill: #000000;text-anchor:middle;font-family:sans-serif;font-style:normal;font-weight:700" x="787.75" y="500">treniruociu_planai</text>
    <rect style="fill: #00ff00" x="717" y="504" width="141.5" height="36"/>
    <rect style="fill: none; fill-opacity:0; stroke-width: 2; stroke: #000000" x="717" y="504" width="141.5" height="36"/>
    <polygon style="fill: #000000" points="720,514 722,517 724,514 722,511 "/>
    <text font-size="12.8" style="fill: #000000;text-anchor:start;font-family:monospace;font-style:normal;font-weight:normal" x="726" y="520">id</text>
    <text font-size="12.8" style="fill: #000000;text-anchor:start;font-family:monospace;font-style:normal;font-weight:normal" x="759.1" y="520">int</text>
    <line style="fill: none; fill-opacity:0; stroke-width: 1; stroke: #000000" x1="726" y1="521.6" x2="782.2" y2="521.6"/>
    <ellipse style="fill: #000000" cx="722" cy="530" rx="2" ry="2"/>
    <text font-size="12.8" style="fill: #000000;text-anchor:start;font-family:monospace;font-style:normal;font-weight:normal" x="726" y="536">pav</text>
    <text font-size="12.8" style="fill: #000000;text-anchor:start;font-family:monospace;font-style:normal;font-weight:normal" x="759.1" y="536">varchar(255)</text>
  </g>
  <g>
    <rect style="fill: #00ff00" x="622" y="318" width="264.7" height="18"/>
    <rect style="fill: none; fill-opacity:0; stroke-width: 2; stroke: #000000" x="622" y="318" width="264.7" height="18"/>
    <text font-size="11.2" style="fill: #000000;text-anchor:middle;font-family:sans-serif;font-style:normal;font-weight:700" x="754.35" y="332">pratimai_treniruociu_planai</text>
    <rect style="fill: #00ff00" x="622" y="336" width="264.7" height="100"/>
    <rect style="fill: none; fill-opacity:0; stroke-width: 2; stroke: #000000" x="622" y="336" width="264.7" height="100"/>
    <polygon style="fill: #000000" points="625,346 627,349 629,346 627,343 "/>
    <text font-size="12.8" style="fill: #000000;text-anchor:start;font-family:monospace;font-style:normal;font-weight:normal" x="631" y="352">id</text>
    <line style="fill: none; fill-opacity:0; stroke-width: 1; stroke: #000000" x1="631" y1="353.6" x2="856.6" y2="353.6"/>
    <ellipse style="fill: #000000" cx="627" cy="362" rx="2" ry="2"/>
    <text font-size="12.8" style="fill: #000000;text-anchor:start;font-family:monospace;font-style:normal;font-weight:normal" x="631" y="368">id_pratimai</text>
    <text font-size="12.8" style="fill: #000000;text-anchor:start;font-family:monospace;font-style:normal;font-weight:normal" x="856.6" y="368">int</text>
    <ellipse style="fill: #000000" cx="627" cy="378" rx="2" ry="2"/>
    <text font-size="12.8" style="fill: #000000;text-anchor:start;font-family:monospace;font-style:normal;font-weight:normal" x="631" y="384">id_planai</text>
    <text font-size="12.8" style="fill: #000000;text-anchor:start;font-family:monospace;font-style:normal;font-weight:normal" x="856.6" y="384">int</text>
    <ellipse style="fill: #000000" cx="627" cy="394" rx="2" ry="2"/>
    <text font-size="12.8" style="fill: #000000;text-anchor:start;font-family:monospace;font-style:normal;font-weight:normal" x="631" y="400">skaicius_pakartojimu</text>
    <text font-size="12.8" style="fill: #000000;text-anchor:start;font-family:monospace;font-style:normal;font-weight:normal" x="856.6" y="400">int</text>
    <ellipse style="fill: none; fill-opacity:0; stroke-width: 0.2; stroke: #000000" cx="627" cy="410" rx="2" ry="2"/>
    <text font-size="12.8" style="fill: #000000;text-anchor:start;font-family:monospace;font-style:normal;font-weight:normal" x="631" y="416">skaicius_atlikimu</text>
    <text font-size="12.8" style="fill: #000000;text-anchor:start;font-family:monospace;font-style:normal;font-weight:normal" x="856.6" y="416">int</text>
    <ellipse style="fill: none; fill-opacity:0; stroke-width: 0.2; stroke: #000000" cx="627" cy="426" rx="2" ry="2"/>
    <text font-size="12.8" style="fill: #000000;text-anchor:start;font-family:monospace;font-style:normal;font-weight:normal" x="631" y="432">poilsio_laikas_tarp_atlikimu</text>
    <text font-size="12.8" style="fill: #000000;text-anchor:start;font-family:monospace;font-style:normal;font-weight:normal" x="856.6" y="432">int</text>
  </g>
  <g>
    <rect style="fill: #00ff00" x="58" y="445" width="257" height="18"/>
    <rect style="fill: none; fill-opacity:0; stroke-width: 2; stroke: #000000" x="58" y="445" width="257" height="18"/>
    <text font-size="11.2" style="fill: #000000;text-anchor:middle;font-family:sans-serif;font-style:normal;font-weight:700" x="186.5" y="459">klientai</text>
    <rect style="fill: #00ff00" x="58" y="463" width="257" height="132"/>
    <rect style="fill: none; fill-opacity:0; stroke-width: 2; stroke: #000000" x="58" y="463" width="257" height="132"/>
    <polygon style="fill: #000000" points="61,473 63,476 65,473 63,470 "/>
    <text font-size="12.8" style="fill: #000000;text-anchor:start;font-family:monospace;font-style:normal;font-weight:normal" x="67" y="479">id</text>
    <text font-size="12.8" style="fill: #000000;text-anchor:start;font-family:monospace;font-style:normal;font-weight:normal" x="207.9" y="479">int</text>
    <line style="fill: none; fill-opacity:0; stroke-width: 1; stroke: #000000" x1="67" y1="480.6" x2="231" y2="480.6"/>
    <ellipse style="fill: #000000" cx="63" cy="489" rx="2" ry="2"/>
    <text font-size="12.8" style="fill: #000000;text-anchor:start;font-family:monospace;font-style:normal;font-weight:normal" x="67" y="495">pav</text>
    <text font-size="12.8" style="fill: #000000;text-anchor:start;font-family:monospace;font-style:normal;font-weight:normal" x="207.9" y="495">varchar(255)</text>
    <ellipse style="fill: #000000" cx="63" cy="505" rx="2" ry="2"/>
    <text font-size="12.8" style="fill: #000000;text-anchor:start;font-family:monospace;font-style:normal;font-weight:normal" x="67" y="511">amzius</text>
    <text font-size="12.8" style="fill: #000000;text-anchor:start;font-family:monospace;font-style:normal;font-weight:normal" x="207.9" y="511">int</text>
    <ellipse style="fill: #000000" cx="63" cy="521" rx="2" ry="2"/>
    <text font-size="12.8" style="fill: #000000;text-anchor:start;font-family:monospace;font-style:normal;font-weight:normal" x="67" y="527">ugis</text>
    <text font-size="12.8" style="fill: #000000;text-anchor:start;font-family:monospace;font-style:normal;font-weight:normal" x="207.9" y="527">int</text>
    <ellipse style="fill: #000000" cx="63" cy="537" rx="2" ry="2"/>
    <text font-size="12.8" style="fill: #000000;text-anchor:start;font-family:monospace;font-style:normal;font-weight:normal" x="67" y="543">lytis</text>
    <text font-size="12.8" style="fill: #000000;text-anchor:start;font-family:monospace;font-style:normal;font-weight:normal" x="207.9" y="543">enum('V','M')</text>
    <ellipse style="fill: #000000" cx="63" cy="553" rx="2" ry="2"/>
    <text font-size="12.8" style="fill: #000000;text-anchor:start;font-family:monospace;font-style:normal;font-weight:normal" x="67" y="559">svoris</text>
    <text font-size="12.8" style="fill: #000000;text-anchor:start;font-family:monospace;font-style:normal;font-weight:normal" x="207.9" y="559">int</text>
    <ellipse style="fill: #000000" cx="63" cy="569" rx="2" ry="2"/>
    <text font-size="12.8" style="fill: #000000;text-anchor:start;font-family:monospace;font-style:normal;font-weight:normal" x="67" y="575">lygis_pasiruosimo</text>
    <text font-size="12.8" style="fill: #000000;text-anchor:start;font-family:monospace;font-style:normal;font-weight:normal" x="207.9" y="575">text</text>
    <ellipse style="fill: #000000" cx="63" cy="585" rx="2" ry="2"/>
    <text font-size="12.8" style="fill: #000000;text-anchor:start;font-family:monospace;font-style:normal;font-weight:normal" x="67" y="591">ligos_traumos</text>
    <text font-size="12.8" style="fill: #000000;text-anchor:start;font-family:monospace;font-style:normal;font-weight:normal" x="207.9" y="591">text</text>
  </g>
  <g>
    <rect style="fill: #00ff00" x="358" y="374" width="210.8" height="18"/>
    <rect style="fill: none; fill-opacity:0; stroke-width: 2; stroke: #000000" x="358" y="374" width="210.8" height="18"/>
    <text font-size="11.2" style="fill: #000000;text-anchor:middle;font-family:sans-serif;font-style:normal;font-weight:700" x="463.4" y="388">klientai_treniruociu_planai</text>
    <rect style="fill: #00ff00" x="358" y="392" width="210.8" height="84"/>
    <rect style="fill: none; fill-opacity:0; stroke-width: 2; stroke: #000000" x="358" y="392" width="210.8" height="84"/>
    <polygon style="fill: #000000" points="361,402 363,405 365,402 363,399 "/>
    <text font-size="12.8" style="fill: #000000;text-anchor:start;font-family:monospace;font-style:normal;font-weight:normal" x="367" y="408">id</text>
    <text font-size="12.8" style="fill: #000000;text-anchor:start;font-family:monospace;font-style:normal;font-weight:normal" x="531" y="408">int</text>
    <line style="fill: none; fill-opacity:0; stroke-width: 1; stroke: #000000" x1="367" y1="409.6" x2="554.1" y2="409.6"/>
    <ellipse style="fill: #000000" cx="363" cy="418" rx="2" ry="2"/>
    <text font-size="12.8" style="fill: #000000;text-anchor:start;font-family:monospace;font-style:normal;font-weight:normal" x="367" y="424">id_kliento</text>
    <text font-size="12.8" style="fill: #000000;text-anchor:start;font-family:monospace;font-style:normal;font-weight:normal" x="531" y="424">int</text>
    <ellipse style="fill: #000000" cx="363" cy="434" rx="2" ry="2"/>
    <text font-size="12.8" style="fill: #000000;text-anchor:start;font-family:monospace;font-style:normal;font-weight:normal" x="367" y="440">id_treniruotes_plano</text>
    <text font-size="12.8" style="fill: #000000;text-anchor:start;font-family:monospace;font-style:normal;font-weight:normal" x="531" y="440">int</text>
    <ellipse style="fill: none; fill-opacity:0; stroke-width: 0.2; stroke: #000000" cx="363" cy="450" rx="2" ry="2"/>
    <text font-size="12.8" style="fill: #000000;text-anchor:start;font-family:monospace;font-style:normal;font-weight:normal" x="367" y="456">data</text>
    <text font-size="12.8" style="fill: #000000;text-anchor:start;font-family:monospace;font-style:normal;font-weight:normal" x="531" y="456">date</text>
    <ellipse style="fill: none; fill-opacity:0; stroke-width: 0.2; stroke: #000000" cx="363" cy="466" rx="2" ry="2"/>
    <text font-size="12.8" style="fill: #000000;text-anchor:start;font-family:monospace;font-style:normal;font-weight:normal" x="367" y="472">rezultatai</text>
    <text font-size="12.8" style="fill: #000000;text-anchor:start;font-family:monospace;font-style:normal;font-weight:normal" x="531" y="472">text</text>
  </g>
  <g>
    <polyline style="fill: none; fill-opacity:0; stroke-width: 2; stroke: #000000" points="706,229 685,229 685,138 806.264,138 "/>
    <polygon style="fill: #000000" points="813.764,138 803.764,143 806.264,138 803.764,133 "/>
    <polygon style="fill: none; fill-opacity:0; stroke-width: 2; stroke: #000000" points="813.764,138 803.764,143 806.264,138 803.764,133 "/>
  </g>
  <g>
    <polyline style="fill: none; fill-opacity:0; stroke-width: 2; stroke: #000000" points="437,183 416,183 416,122 806.264,122 "/>
    <polygon style="fill: #000000" points="813.764,122 803.764,127 806.264,122 803.764,117 "/>
    <polygon style="fill: none; fill-opacity:0; stroke-width: 2; stroke: #000000" points="813.764,122 803.764,127 806.264,122 803.764,117 "/>
  </g>
  <g>
    <polyline style="fill: none; fill-opacity:0; stroke-width: 2; stroke: #000000" points="437,183 417,183 417,346 612.264,346 "/>
    <polygon style="fill: #000000" points="619.764,346 609.764,351 612.264,346 609.764,341 "/>
    <polygon style="fill: none; fill-opacity:0; stroke-width: 2; stroke: #000000" points="619.764,346 609.764,351 612.264,346 609.764,341 "/>
    <text font-size="9.6" style="fill: #000000;text-anchor:end;font-family:monospace;font-style:normal;font-weight:normal" x="433" y="179">1</text>
    <text font-size="9.6" style="fill: #000000;text-anchor:end;font-family:monospace;font-style:normal;font-weight:normal" x="618" y="342">n</text>
  </g>
  <g>
    <polyline style="fill: none; fill-opacity:0; stroke-width: 2; stroke: #000000" points="58,473 37,473 37,418 348.264,418 "/>
    <polygon style="fill: #000000" points="355.764,418 345.764,423 348.264,418 345.764,413 "/>
    <polygon style="fill: none; fill-opacity:0; stroke-width: 2; stroke: #000000" points="355.764,418 345.764,423 348.264,418 345.764,413 "/>
  </g>
  <g>
    <polyline style="fill: none; fill-opacity:0; stroke-width: 2; stroke: #000000" points="717,514 601,514 601,378 612.264,378 "/>
    <polygon style="fill: #000000" points="619.764,378 609.764,383 612.264,378 609.764,373 "/>
    <polygon style="fill: none; fill-opacity:0; stroke-width: 2; stroke: #000000" points="619.764,378 609.764,383 612.264,378 609.764,373 "/>
  </g>
  <g>
    <polyline style="fill: none; fill-opacity:0; stroke-width: 2; stroke: #000000" points="717,514 337,514 337,434 348.264,434 "/>
    <polygon style="fill: #000000" points="355.764,434 345.764,439 348.264,434 345.764,429 "/>
    <polygon style="fill: none; fill-opacity:0; stroke-width: 2; stroke: #000000" points="355.764,434 345.764,439 348.264,434 345.764,429 "/>
  </g>
  <g>
    <rect style="fill: #ffffff" x="90" y="702" width="187.7" height="18"/>
    <rect style="fill: none; fill-opacity:0; stroke-width: 2; stroke: #000000" x="90" y="702" width="187.7" height="18"/>
    <text font-size="11.2" style="fill: #000000;text-anchor:middle;font-family:sans-serif;font-style:normal;font-weight:700" x="183.85" y="716">programos</text>
    <rect style="fill: #ffffff" x="90" y="720" width="187.7" height="68"/>
    <rect style="fill: none; fill-opacity:0; stroke-width: 2; stroke: #000000" x="90" y="720" width="187.7" height="68"/>
    <polygon style="fill: #000000" points="93,730 95,733 97,730 95,727 "/>
    <text font-size="12.8" style="fill: #000000;text-anchor:start;font-family:monospace;font-style:normal;font-weight:normal" x="99" y="736">id</text>
    <text font-size="12.8" style="fill: #000000;text-anchor:start;font-family:monospace;font-style:normal;font-weight:normal" x="178.3" y="736">int</text>
    <line style="fill: none; fill-opacity:0; stroke-width: 1; stroke: #000000" x1="99" y1="737.6" x2="201.4" y2="737.6"/>
    <ellipse style="fill: #000000" cx="95" cy="746" rx="2" ry="2"/>
    <text font-size="12.8" style="fill: #000000;text-anchor:start;font-family:monospace;font-style:normal;font-weight:normal" x="99" y="752">pav</text>
    <text font-size="12.8" style="fill: #000000;text-anchor:start;font-family:monospace;font-style:normal;font-weight:normal" x="178.3" y="752">varchar(255)</text>
    <ellipse style="fill: #000000" cx="95" cy="762" rx="2" ry="2"/>
    <text font-size="12.8" style="fill: #000000;text-anchor:start;font-family:monospace;font-style:normal;font-weight:normal" x="99" y="768">trukme</text>
    <text font-size="12.8" style="fill: #000000;text-anchor:start;font-family:monospace;font-style:normal;font-weight:normal" x="178.3" y="768">int</text>
    <ellipse style="fill: #000000" cx="95" cy="778" rx="2" ry="2"/>
    <text font-size="12.8" style="fill: #000000;text-anchor:start;font-family:monospace;font-style:normal;font-weight:normal" x="99" y="784">aprasymas</text>
    <text font-size="12.8" style="fill: #000000;text-anchor:start;font-family:monospace;font-style:normal;font-weight:normal" x="178.3" y="784">text</text>
  </g>
  <g>
    <rect style="fill: #ffffff" x="345" y="636" width="203.1" height="18"/>
    <rect style="fill: none; fill-opacity:0; stroke-width: 2; stroke: #000000" x="345" y="636" width="203.1" height="18"/>
    <text font-size="11.2" style="fill: #000000;text-anchor:middle;font-family:sans-serif;font-style:normal;font-weight:700" x="446.55" y="650">programos_treniruociu_planai</text>
    <rect style="fill: #ffffff" x="345" y="654" width="203.1" height="68"/>
    <rect style="fill: none; fill-opacity:0; stroke-width: 2; stroke: #000000" x="345" y="654" width="203.1" height="68"/>
    <polygon style="fill: #000000" points="348,664 350,667 352,664 350,661 "/>
    <text font-size="12.8" style="fill: #000000;text-anchor:start;font-family:monospace;font-style:normal;font-weight:normal" x="354" y="670">id</text>
    <text font-size="12.8" style="fill: #000000;text-anchor:start;font-family:monospace;font-style:normal;font-weight:normal" x="518" y="670">int</text>
    <line style="fill: none; fill-opacity:0; stroke-width: 1; stroke: #000000" x1="354" y1="671.6" x2="541.1" y2="671.6"/>
    <ellipse style="fill: #000000" cx="350" cy="680" rx="2" ry="2"/>
    <text font-size="12.8" style="fill: #000000;text-anchor:start;font-family:monospace;font-style:normal;font-weight:normal" x="354" y="686">id_programos</text>
    <text font-size="12.8" style="fill: #000000;text-anchor:start;font-family:monospace;font-style:normal;font-weight:normal" x="518" y="686">int</text>
    <ellipse style="fill: #000000" cx="350" cy="696" rx="2" ry="2"/>
    <text font-size="12.8" style="fill: #000000;text-anchor:start;font-family:monospace;font-style:normal;font-weight:normal" x="354" y="702">id_treniruociu_plano</text>
    <ellipse style="fill: none; fill-opacity:0; stroke-width: 0.2; stroke: #000000" cx="350" cy="712" rx="2" ry="2"/>
    <text font-size="12.8" style="fill: #000000;text-anchor:start;font-family:monospace;font-style:normal;font-weight:normal" x="354" y="718">nr_dienos</text>
    <text font-size="12.8" style="fill: #000000;text-anchor:start;font-family:monospace;font-style:normal;font-weight:normal" x="518" y="718">int</text>
  </g>
  <g>
    <rect style="fill: #ffffff" x="659" y="687" width="287.8" height="18"/>
    <rect style="fill: none; fill-opacity:0; stroke-width: 2; stroke: #000000" x="659" y="687" width="287.8" height="18"/>
    <text font-size="11.2" style="fill: #000000;text-anchor:middle;font-family:sans-serif;font-style:normal;font-weight:700" x="802.9" y="701">programos_treniruociu_planai_klientai</text>
    <rect style="fill: #ffffff" x="659" y="705" width="287.8" height="68"/>
    <rect style="fill: none; fill-opacity:0; stroke-width: 2; stroke: #000000" x="659" y="705" width="287.8" height="68"/>
    <polygon style="fill: #000000" points="662,715 664,718 666,715 664,712 "/>
    <text font-size="12.8" style="fill: #000000;text-anchor:start;font-family:monospace;font-style:normal;font-weight:normal" x="668" y="721">id</text>
    <text font-size="12.8" style="fill: #000000;text-anchor:start;font-family:monospace;font-style:normal;font-weight:normal" x="909" y="721">int</text>
    <line style="fill: none; fill-opacity:0; stroke-width: 1; stroke: #000000" x1="668" y1="722.6" x2="932.1" y2="722.6"/>
    <ellipse style="fill: #000000" cx="664" cy="731" rx="2" ry="2"/>
    <text font-size="12.8" style="fill: #000000;text-anchor:start;font-family:monospace;font-style:normal;font-weight:normal" x="668" y="737">id_programos_treniruociu_palno</text>
    <text font-size="12.8" style="fill: #000000;text-anchor:start;font-family:monospace;font-style:normal;font-weight:normal" x="909" y="737">int</text>
    <ellipse style="fill: #000000" cx="664" cy="747" rx="2" ry="2"/>
    <text font-size="12.8" style="fill: #000000;text-anchor:start;font-family:monospace;font-style:normal;font-weight:normal" x="668" y="753">id_kliento</text>
    <text font-size="12.8" style="fill: #000000;text-anchor:start;font-family:monospace;font-style:normal;font-weight:normal" x="909" y="753">int</text>
    <ellipse style="fill: none; fill-opacity:0; stroke-width: 0.2; stroke: #000000" cx="664" cy="763" rx="2" ry="2"/>
    <text font-size="12.8" style="fill: #000000;text-anchor:start;font-family:monospace;font-style:normal;font-weight:normal" x="668" y="769">data_pradzios</text>
    <text font-size="12.8" style="fill: #000000;text-anchor:start;font-family:monospace;font-style:normal;font-weight:normal" x="909" y="769">date</text>
  </g>
  <g>
    <polyline style="fill: none; fill-opacity:0; stroke-width: 2; stroke: #000000" points="659,731 324,731 324,664 335.264,664 "/>
    <polygon style="fill: #000000" points="342.764,664 332.764,669 335.264,664 332.764,659 "/>
    <polygon style="fill: none; fill-opacity:0; stroke-width: 2; stroke: #000000" points="342.764,664 332.764,669 335.264,664 332.764,659 "/>
  </g>
  <g>
    <polyline style="fill: none; fill-opacity:0; stroke-width: 2; stroke: #000000" points="717,514 324,514 324,696 335.264,696 "/>
    <polygon style="fill: #000000" points="342.764,696 332.764,701 335.264,696 332.764,691 "/>
    <polygon style="fill: none; fill-opacity:0; stroke-width: 2; stroke: #000000" points="342.764,696 332.764,701 335.264,696 332.764,691 "/>
  </g>
  <g>
    <polyline style="fill: none; fill-opacity:0; stroke-width: 2; stroke: #000000" points="90,730 69,730 69,680 335.264,680 "/>
    <polygon style="fill: #000000" points="342.764,680 332.764,685 335.264,680 332.764,675 "/>
    <polygon style="fill: none; fill-opacity:0; stroke-width: 2; stroke: #000000" points="342.764,680 332.764,685 335.264,680 332.764,675 "/>
  </g>
  <g>
    <rect style="fill: #ffffff" x="960" y="352" width="141.5" height="18"/>
    <rect style="fill: none; fill-opacity:0; stroke-width: 2; stroke: #000000" x="960" y="352" width="141.5" height="18"/>
    <text font-size="11.2" style="fill: #000000;text-anchor:middle;font-family:sans-serif;font-style:normal;font-weight:700" x="1030.75" y="366">priemones</text>
    <rect style="fill: #ffffff" x="960" y="370" width="141.5" height="36"/>
    <rect style="fill: none; fill-opacity:0; stroke-width: 2; stroke: #000000" x="960" y="370" width="141.5" height="36"/>
    <polygon style="fill: #000000" points="963,380 965,383 967,380 965,377 "/>
    <text font-size="12.8" style="fill: #000000;text-anchor:start;font-family:monospace;font-style:normal;font-weight:normal" x="969" y="386">id</text>
    <text font-size="12.8" style="fill: #000000;text-anchor:start;font-family:monospace;font-style:normal;font-weight:normal" x="1002.1" y="386">int</text>
    <line style="fill: none; fill-opacity:0; stroke-width: 1; stroke: #000000" x1="969" y1="387.6" x2="1025.2" y2="387.6"/>
    <ellipse style="fill: #000000" cx="965" cy="396" rx="2" ry="2"/>
    <text font-size="12.8" style="fill: #000000;text-anchor:start;font-family:monospace;font-style:normal;font-weight:normal" x="969" y="402">pav</text>
    <text font-size="12.8" style="fill: #000000;text-anchor:start;font-family:monospace;font-style:normal;font-weight:normal" x="1002.1" y="402">varchar(255)</text>
  </g>
  <g>
    <rect style="fill: #ffffff" x="954" y="236" width="141.5" height="18"/>
    <rect style="fill: none; fill-opacity:0; stroke-width: 2; stroke: #000000" x="954" y="236" width="141.5" height="18"/>
    <text font-size="11.2" style="fill: #000000;text-anchor:middle;font-family:sans-serif;font-style:normal;font-weight:700" x="1024.75" y="250">pratimai_priemones</text>
    <rect style="fill: #ffffff" x="954" y="254" width="141.5" height="52"/>
    <rect style="fill: none; fill-opacity:0; stroke-width: 2; stroke: #000000" x="954" y="254" width="141.5" height="52"/>
    <polygon style="fill: #000000" points="957,264 959,267 961,264 959,261 "/>
    <text font-size="12.8" style="fill: #000000;text-anchor:start;font-family:monospace;font-style:normal;font-weight:normal" x="963" y="270">id</text>
    <text font-size="12.8" style="fill: #000000;text-anchor:start;font-family:monospace;font-style:normal;font-weight:normal" x="1065.4" y="270">int</text>
    <line style="fill: none; fill-opacity:0; stroke-width: 1; stroke: #000000" x1="963" y1="271.6" x2="1088.5" y2="271.6"/>
    <ellipse style="fill: #000000" cx="959" cy="280" rx="2" ry="2"/>
    <text font-size="12.8" style="fill: #000000;text-anchor:start;font-family:monospace;font-style:normal;font-weight:normal" x="963" y="286">id_pratimai</text>
    <text font-size="12.8" style="fill: #000000;text-anchor:start;font-family:monospace;font-style:normal;font-weight:normal" x="1065.4" y="286">int</text>
    <ellipse style="fill: #000000" cx="959" cy="296" rx="2" ry="2"/>
    <text font-size="12.8" style="fill: #000000;text-anchor:start;font-family:monospace;font-style:normal;font-weight:normal" x="963" y="302">id_priemones</text>
    <text font-size="12.8" style="fill: #000000;text-anchor:start;font-family:monospace;font-style:normal;font-weight:normal" x="1065.4" y="302">int</text>
  </g>
  <g>
    <rect style="fill: #ffffff" x="958" y="475" width="141.5" height="18"/>
    <rect style="fill: none; fill-opacity:0; stroke-width: 2; stroke: #000000" x="958" y="475" width="141.5" height="18"/>
    <text font-size="11.2" style="fill: #000000;text-anchor:middle;font-family:sans-serif;font-style:normal;font-weight:700" x="1028.75" y="489">klientai_priemones</text>
    <rect style="fill: #ffffff" x="958" y="493" width="141.5" height="52"/>
    <rect style="fill: none; fill-opacity:0; stroke-width: 2; stroke: #000000" x="958" y="493" width="141.5" height="52"/>
    <polygon style="fill: #000000" points="961,503 963,506 965,503 963,500 "/>
    <text font-size="12.8" style="fill: #000000;text-anchor:start;font-family:monospace;font-style:normal;font-weight:normal" x="967" y="509">id</text>
    <line style="fill: none; fill-opacity:0; stroke-width: 1; stroke: #000000" x1="967" y1="510.6" x2="1069.4" y2="510.6"/>
    <ellipse style="fill: #000000" cx="963" cy="519" rx="2" ry="2"/>
    <text font-size="12.8" style="fill: #000000;text-anchor:start;font-family:monospace;font-style:normal;font-weight:normal" x="967" y="525">id_klientai</text>
    <text font-size="12.8" style="fill: #000000;text-anchor:start;font-family:monospace;font-style:normal;font-weight:normal" x="1069.4" y="525">int</text>
    <ellipse style="fill: #000000" cx="963" cy="535" rx="2" ry="2"/>
    <text font-size="12.8" style="fill: #000000;text-anchor:start;font-family:monospace;font-style:normal;font-weight:normal" x="967" y="541">id_priemones</text>
    <text font-size="12.8" style="fill: #000000;text-anchor:start;font-family:monospace;font-style:normal;font-weight:normal" x="1069.4" y="541">int</text>
  </g>
  <g>
    <polyline style="fill: none; fill-opacity:0; stroke-width: 2; stroke: #000000" points="58,473 58,831 659,831 659,756.736 "/>
    <polygon style="fill: #000000" points="659,749.236 664,759.236 659,756.736 654,759.236 "/>
    <polygon style="fill: none; fill-opacity:0; stroke-width: 2; stroke: #000000" points="659,749.236 664,759.236 659,756.736 654,759.236 "/>
  </g>
</svg>
